{
    "asset" : {
        "generator" : "Khronos glTF Blender I/O v1.7.33",
        "version" : "2.0"
    },
    "scene" : 0,
    "scenes" : [
        {
            "name" : "Scene",
            "nodes" : [
                0
            ]
        }
    ],
    "nodes" : [
        {
            "mesh" : 0,
            "name" : "Circle.001",
            "rotation" : [
                0.7071068286895752,
                0,
                0,
                0.7071068286895752
            ]
        }
    ],
    "materials" : [
        {
            "doubleSided" : true,
            "name" : "Material",
            "pbrMetallicRoughness" : {
                "baseColorFactor" : [
                    0.13255099952220917,
                    0.12311233580112457,
                    0.14239880442619324,
                    1
                ],
                "metallicFactor" : 0.960629940032959,
                "roughnessFactor" : 0.5
            }
        }
    ],
    "meshes" : [
        {
            "name" : "Circle.002",
            "primitives" : [
                {
                    "attributes" : {
                        "POSITION" : 0,
                        "NORMAL" : 1,
                        "TEXCOORD_0" : 2
                    },
                    "indices" : 3,
                    "material" : 0
                }
            ]
        }
    ],
    "accessors" : [
        {
            "bufferView" : 0,
            "componentType" : 5126,
            "count" : 2891,
            "max" : [
                1.1983039379119873,
                0.34107667207717896,
                1.1983039379119873
            ],
            "min" : [
                -1.1983039379119873,
                0,
                -1.1983039379119873
            ],
            "type" : "VEC3"
        },
        {
            "bufferView" : 1,
            "componentType" : 5126,
            "count" : 2891,
            "type" : "VEC3"
        },
        {
            "bufferView" : 2,
            "componentType" : 5126,
            "count" : 2891,
            "type" : "VEC2"
        },
        {
            "bufferView" : 3,
            "componentType" : 5123,
            "count" : 8136,
            "type" : "SCALAR"
        }
    ],
    "bufferViews" : [
        {
            "buffer" : 0,
            "byteLength" : 34692,
            "byteOffset" : 0
        },
        {
            "buffer" : 0,
            "byteLength" : 34692,
            "byteOffset" : 34692
        },
        {
            "buffer" : 0,
            "byteLength" : 23128,
            "byteOffset" : 69384
        },
        {
            "buffer" : 0,
            "byteLength" : 16272,
            "byteOffset" : 92512
        }
    ],
    "buffers" : [
        {
            "byteLength" : 108784,
            "uri" : "data:application/octet-stream;base64,"
        }
    ]
}
